<?xml version="1.0" encoding="UTF-8"?>
<svg width="18px" height="14px" viewBox="0 0 18 14" version="1.1" xmlns="http://www.w3.org/2000/svg" xmlns:xlink="http://www.w3.org/1999/xlink">
    <title>Icon</title>
    <g id="Symbols" stroke="none" stroke-width="1" fill="none" fill-rule="evenodd">
        <g id="Icons/18x18/Arrow-Left" transform="translate(0.000000, -2.000000)" fill="#999999">
            <path d="M17.1261134,8.12172898 L3.05603138,8.12172898 L7.25297205,4.1529518 C7.59898387,3.8246523 7.61595025,3.27890041 7.2909993,2.92974197 L7.2909993,2.92974197 C6.9635671,2.58390338 6.41790664,2.56858858 6.0715922,2.89551744 L0.259761026,8.39552517 L0.259761026,8.39552517 C0.0941615553,8.54860216 0,8.76387185 0,8.98938404 C0,9.21489623 0.0941615553,9.43016592 0.259761026,9.58324291 L0.259761026,9.58324291 L0.887210628,10.176468 L6.08426794,15.0895885 C6.43819431,15.4177797 6.98524079,15.4177797 7.33916715,15.0895885 L7.33916715,15.0895885 C7.50476662,14.9365115 7.59892818,14.7212418 7.59892818,14.4957296 C7.59892818,14.2702175 7.50476662,14.0549478 7.33916715,13.9018708 L3.10166408,9.89633392 L17.085551,9.89633392 C17.5728849,9.90028622 17.9763462,9.51864869 17.9994725,9.0318478 C18.0076938,8.79440848 17.9195263,8.5637392 17.7550283,8.39231745 C17.5905302,8.2208957 17.3636898,8.12329838 17.1261134,8.12172898 Z" id="Icon"></path>
        </g>
    </g>
</svg>