<?xml version="1.0" encoding="UTF-8"?>
<svg width="10px" height="6px" viewBox="0 0 10 6" version="1.1" xmlns="http://www.w3.org/2000/svg" xmlns:xlink="http://www.w3.org/1999/xlink">
    <title>Icon</title>
    <g id="Symbols" stroke="none" stroke-width="1" fill="none" fill-rule="evenodd">
        <g id="Icons/10x10/Chevron-down" transform="translate(0.000000, -2.000000)" fill="#999999">
            <path d="M9.82950395,2.50828654 L9.82598302,2.50828654 C9.59811828,2.2809459 9.22924543,2.2809459 9.00138069,2.50828654 L5.17905669,6.32800485 C5.11484573,6.39254967 5.02710073,6.42813069 4.93607282,6.42653595 C4.84504492,6.42494121 4.75859994,6.38630853 4.69668898,6.31955414 L1.00956878,2.36532879 C0.789833819,2.1298299 0.420804421,2.11706056 0.185318549,2.33680766 C-0.0501673233,2.55655476 -0.0629359611,2.92560455 0.156798998,3.16110344 L4.1086933,7.39913161 L4.19671661,7.49420203 C4.38296297,7.69356129 4.64212326,7.80881695 4.91489532,7.8135957 C5.18766737,7.81837445 5.45070535,7.7122673 5.64381974,7.51955414 L5.73254724,7.43082175 L9.82950395,3.33293442 C10.056832,3.10505709 10.056832,2.73616386 9.82950395,2.50828654 L9.82950395,2.50828654 Z" id="Icon"></path>
        </g>
    </g>
</svg>