<?xml version="1.0" encoding="UTF-8"?>
<svg width="24px" height="24px" viewBox="0 0 24 24" version="1.1" xmlns="http://www.w3.org/2000/svg" xmlns:xlink="http://www.w3.org/1999/xlink">
    <title>Google@3x</title>
    <g id="Symbols" stroke="none" stroke-width="1" fill="none" fill-rule="evenodd">
        <g id="Google">
            <rect id="Rectangle" x="0" y="0" width="24" height="24"></rect>
            <path d="M5.1721875,12 C5.1721875,11.2205625 5.3015625,10.4731875 5.53275,9.7723125 L1.488375,6.684 C0.700125,8.2843125 0.256125,10.0876875 0.256125,12 C0.256125,13.9108125 0.69975,15.712875 1.4866875,17.31225 L5.5288125,14.2179375 C5.299875,13.52025 5.1721875,12.7756875 5.1721875,12" id="Path" fill="#FBBC05"></path>
            <path d="M12.2731875,4.909125 C13.9665,4.909125 15.4959375,5.509125 16.697625,6.490875 L20.193375,3 C18.0631875,1.1454375 15.3320625,0 12.2731875,0 C7.5241875,0 3.4426875,2.71575 1.488375,6.684 L5.5325625,9.7723125 C6.4644375,6.9436875 9.12075,4.909125 12.2731875,4.909125" id="Path" fill="#EA4335"></path>
            <path d="M12.2731875,19.090875 C9.1209375,19.090875 6.464625,17.0563125 5.53275,14.2276875 L1.488375,17.3154375 C3.4426875,21.28425 7.5241875,24 12.2731875,24 C15.2041875,24 18.002625,22.9591875 20.1028125,21.0091875 L16.2639375,18.0414375 C15.18075,18.72375 13.8166875,19.090875 12.2731875,19.090875" id="Path" fill="#34A853"></path>
            <path d="M23.743875,12 C23.743875,11.290875 23.6345625,10.5271875 23.4706875,9.81825 L12.2731875,9.81825 L12.2731875,14.4545625 L18.7186875,14.4545625 C18.396375,16.035375 17.51925,17.2505625 16.2639375,18.0414375 L20.1028125,21.0091875 C22.3089375,18.9616875 23.743875,15.9114375 23.743875,12" id="Path" fill="#4285F4"></path>
        </g>
    </g>
</svg>