<?xml version="1.0" encoding="UTF-8"?>
<svg width="329px" height="67px" viewBox="0 0 329 67" version="1.1" xmlns="http://www.w3.org/2000/svg" xmlns:xlink="http://www.w3.org/1999/xlink">
    <title>Logo</title>
    <g id="Login" stroke="none" stroke-width="1" fill="none" fill-rule="evenodd">
        <g id="1.-Login---#1" transform="translate(-43.000000, -279.000000)">
            <g id="Logo" transform="translate(43.000000, 279.000000)">
                <g id="Slogan" transform="translate(194.000000, 18.000000)" fill="#FFFFFF" font-family="Gilroy-Medium, Gilroy" font-size="15" font-weight="400" letter-spacing="0.1" line-spacing="24">
                    <text>
                        <tspan x="0.455" y="12">anytime. anywhere.</tspan>
                    </text>
                </g>
                <g id="Divider" transform="translate(165.000000, 22.000000)" stroke="#FFFFFF" stroke-linecap="round">
                    <line x1="0.5" y1="0.5" x2="0.5" y2="22.5" id="Line-"></line>
                </g>
                <g fill="#FFFFFF" fill-rule="nonzero" id="svg_logo">
                    <g>
                        <path d="M34.4885572,35.7697959 L8.38358209,35.7697959 C8.5880597,40.0085714 11.7915423,43.7004082 17.8577114,43.7004082 C21.3494731,43.8171246 24.6226609,41.9995543 26.3776119,38.9693878 L33.738806,39.7897959 C32.7164179,44.5071429 27.3318408,51.1387928 17.7895522,51.1387928 C7.15671642,51.152449 -2.13162821e-14,43.0714286 -2.13162821e-14,32.9667347 C-2.13162821e-14,23.3269388 6.8159204,15.1912245 17.2442786,15.1912245 C27.8771144,15.1912245 34.4885572,23.6687755 34.4885572,33.5820408 L34.4885572,35.7697959 Z M8.38358209,29.9585714 L26.3844279,29.9585714 C26.111791,26.13 23.0787065,22.6432653 17.8304478,22.6432653 C12.7185075,22.6432653 8.5880597,25.9795918 8.38358209,29.9585714 Z" id="Shape"></path>
                        <polygon id="Path" points="46.9753234 51.2755102 38.5917413 51.2755102 38.5917413 -2.48689958e-14 46.9753234 -2.48689958e-14"></polygon>
                        <polygon id="Path" points="60.28 15.1912245 70.8855721 39.9402041 81.3889055 15.1912245 90.508607 15.1912245 68.4795522 67 59.3530348 67 66.2166667 50.8447959 51.0648756 15.1912245"></polygon>
                        <polygon id="Path" points="109.872637 33.9170408 94.5708955 15.1912245 105.837612 15.1912245 115.509403 27.0256122 125.174378 15.1912245 136.44791 15.1912245 121.139353 33.9170408 135.241493 51.1729592 123.981592 51.1729592 115.509403 40.8153061 107.00995 51.1729592 95.7704975 51.1729592"></polygon>
                    </g>
                </g>
            </g>
        </g>
    </g>
</svg>