<?xml version="1.0" encoding="UTF-8"?>
<svg width="18px" height="18px" viewBox="0 0 18 18" version="1.1" xmlns="http://www.w3.org/2000/svg" xmlns:xlink="http://www.w3.org/1999/xlink">
    <title>Shape</title>
    <g id="Symbols" stroke="none" stroke-width="1" fill="none" fill-rule="evenodd">
        <g id="Icons/18x18/Search" fill="#999999">
            <path d="M17.7007919,16.3010647 L14.4743519,13.1009096 C16.8091821,10.1361161 16.7845814,5.95339599 14.4150385,3.01621103 C12.0454957,0.079026059 7.95912311,-0.834042354 4.56263743,0.814768047 C1.16615175,2.46357845 -0.640115325,6.23720524 0.207658194,9.91312704 C1.05543171,13.5890488 4.33252021,16.1928618 8.1088443,16.1910199 C9.91338996,16.1942807 11.6659532,15.5875482 13.0814619,14.4695135 L16.2863753,17.7126747 C16.4728962,17.9013345 16.7288271,18.0051502 16.9942167,17.9998032 C17.2572288,17.9948882 17.5090377,17.8925615 17.7007919,17.7126747 C17.8920435,17.5275519 18,17.2728921 18,17.0068697 C18,16.7408473 17.8920435,16.4861876 17.7007919,16.3010647 Z M12.4192059,12.4166077 C10.3652738,14.4597288 7.15282525,14.7697465 4.74532983,13.157176 C2.3378344,11.5446054 1.40530184,8.45822738 2.51770214,5.78445642 C3.63010244,3.11068546 6.47785287,1.59363615 9.32038974,2.16053893 C12.1629266,2.72744172 14.2091675,5.22052669 14.2084368,8.11600399 C14.2066345,9.72984578 13.5630149,11.2768532 12.4192059,12.4166077 Z" id="Shape"></path>
        </g>
    </g>
</svg>